<!--?xml version="1.0" standalone="no"?-->
              <svg id="sw-js-blob-svg" viewBox="0 0 100 100" xmlns="http://www.w3.org/2000/svg" version="1.1">
                    <defs> 
                        <linearGradient id="sw-gradient" x1="0" x2="1" y1="1" y2="0">
                            <stop id="stop1" stop-color="rgba(248, 117, 55, 1)" offset="0%"></stop>
                            <stop id="stop2" stop-color="rgba(251, 168, 31, 1)" offset="100%"></stop>
                        </linearGradient>
                    </defs>
                <path fill="url(#sw-gradient)" d="M19.1,-32.1C24.8,-29.8,29.6,-24.8,33.4,-19C37.2,-13.2,40,-6.6,40.3,0.2C40.6,6.9,38.3,13.9,34.5,19.5C30.6,25.2,25,29.5,19,34.1C13,38.7,6.5,43.5,-0.7,44.8C-7.9,46,-15.8,43.5,-22.1,39.1C-28.4,34.7,-33.1,28.3,-37,21.4C-40.8,14.6,-43.8,7.3,-44.6,-0.5C-45.4,-8.2,-44,-16.4,-39.3,-21.8C-34.6,-27.1,-26.5,-29.6,-19.4,-31.1C-12.3,-32.7,-6.2,-33.4,0.3,-33.9C6.7,-34.3,13.4,-34.5,19.1,-32.1Z" width="100%" height="100%" transform="translate(50 50)" stroke-width="0" style="transition: all 0.3s ease 0s;" stroke="url(#sw-gradient)"></path>
              </svg>